# xmcd
#
# Track frame offsets:
#	150
#	23479
#	45218
#	101218
#	125726
#	149468
#	168027
#	184066
#	207783
#	225832
#	246991
#	264695
#	300175
#	328242
#
# Disc length: 4696 seconds
#
# Revision: 0
# Processed by: cddbd v1.4PL0 Copyright (c) Steve Scherf et al.
# Submitted via: dBpowerAMP V4.0
#
DISCID=b512560e
DTITLE=Divers - Variété Séga 2
DYEAR=1900
DGENRE=
TTITLE0=Solision
TTITLE1=Zolie Ti Dimoune
TTITLE2=Pot Pourri Séga - Cassiya
TTITLE3=Overdoz
TTITLE4=Citoyen
TTITLE5=La Cage Mam - Jean-Claude
TTITLE6=Souhaite Bonne Année - Jean-Claude
TTITLE7=Bondié
TTITLE8=Soldat
TTITLE9=Baké Ya Ya Li Zoli
TTITLE10=Ti Clémentain
TTITLE11=Charité Bienordonnée
TTITLE12=Lambiance Fiesta
TTITLE13=Courpa Pena Zoreil
EXTD=
EXTT0=
EXTT1=
EXTT2=
EXTT3=
EXTT4=
EXTT5=
EXTT6=
EXTT7=
EXTT8=
EXTT9=
EXTT10=
EXTT11=
EXTT12=
EXTT13=
PLAYORDER=
